<svg width="48" height="48" viewBox="0 0 48 48" fill="none" xmlns="http://www.w3.org/2000/svg">
<path d="M12 0C5.372 0 0 5.372 0 12C0 18.628 5.372 24 12 24C18.628 24 24 18.628 24 12C24 5.372 18.628 0 12 0ZM5 6.5C5 5.12 6.12 4 7.5 4C8.88 4 10 5.12 10 6.5C10 7.88 8.88 9 7.5 9C6.12 9 5 7.88 5 6.5ZM8.918 19.306C8.414 20.04 7.412 20.216 6.694 19.718C5.966 19.218 5.78 18.22 6.282 17.494L15.082 4.694C15.584 3.966 16.582 3.782 17.306 4.282C18.034 4.782 18.22 5.78 17.718 6.506L8.918 19.306ZM16.5 20C15.12 20 14 18.88 14 17.5C14 16.12 15.12 15 16.5 15C17.88 15 19 16.12 19 17.5C19 18.88 17.88 20 16.5 20ZM47.02 25.368L34.222 46C33.34 47.328 32 48 30.534 48C29.904 48 29.26 47.906 28.64 47.62C26.61 46.682 25.624 44.486 26.238 42.336L29.362 32.002H22.004C20.086 32.002 18.33 31.118 17.186 29.578C16.7 28.922 16.392 28.186 16.204 27.424C22.998 25.576 28 19.38 28 12.002C28 7.99 26.514 4.334 24.074 1.526C25.144 0.572 26.536 0 28.056 0H35.442C37.144 0 38.742 0.836 39.714 2.238C40.684 3.638 40.906 5.428 40.308 7.022L36.942 16H42.056C44.284 16 46.314 17.222 47.358 19.192C47.826 20.076 48.002 21 48.002 22C48.002 23.178 47.71 24.352 47.02 25.368Z" fill="#FFBF00"/>
</svg>
